<svg width="201" height="257" viewBox="0 0 201 257" fill="none" xmlns="http://www.w3.org/2000/svg">
<g clip-path="url(#clip0_767_991)">
<path d="M74.9931 36.2988L30.1568 71.6329L13.0811 257H180.686L201 36.2988H74.9931Z" fill="#575757"/>
<path d="M71.741 71.6329L74.9935 36.2988L30.1572 71.6329H71.741Z" fill="black"/>
<path d="M61.912 15.1473L17.0615 50.4814L0 235.863H167.59L187.919 15.1473H61.912Z" fill="#575757"/>
<path d="M58.6595 50.4814L61.9121 15.1473L17.0615 50.4814H58.6595Z" fill="#828282"/>
<path d="M15.0361 235.863L171.514 241.81L185.965 36.2988L167.591 235.863H15.0361Z" fill="#333333"/>
<path d="M28.0319 13.2467C27.2616 12.3684 26.5198 11.4756 25.6781 10.6693C24.8507 9.8918 24.0518 9.08548 23.1674 8.37995C22.6966 8.00559 22.2401 7.63123 21.7694 7.25687C21.4413 6.99769 21.156 6.75292 20.7565 6.59453C20.6709 6.56573 20.5853 6.52254 20.4998 6.49374C20.2572 6.39295 20.0005 6.27776 19.7579 6.17697C18.8735 5.80261 18.0033 5.73062 17.1902 6.36415C16.5054 6.8969 16.0489 7.948 16.3628 8.81191C16.591 9.45985 16.7907 10.2806 17.1616 10.8421C17.4612 11.3029 17.8178 11.7348 18.146 12.1812C18.9876 13.3187 19.9006 14.3554 20.8707 15.3921C21.6695 16.256 22.554 16.9903 23.4527 17.739C24.0376 18.2286 24.6082 18.7757 25.2644 19.1501C26.0633 19.6108 26.9335 20.1292 27.875 20.014C28.5169 19.9276 29.1303 19.798 29.5868 19.2941C30.0433 18.7901 30.243 18.243 30.3001 17.5662C30.4285 15.9248 29.0162 14.413 28.0176 13.2755V13.2467H28.0319Z" fill="#525252"/>
<path d="M24.3796 28.9843C23.9944 28.3939 23.4952 28.0052 22.9245 27.6596C22.197 27.0261 21.0843 26.7813 20.1856 26.6949C19.4866 26.6373 18.7733 26.6085 18.0743 26.6085C17.2041 26.6085 16.2911 26.8245 15.4352 26.9829C14.4366 27.1701 13.5379 27.4292 12.8531 28.25C11.9116 29.373 12.0115 31.0001 13.3096 31.8208C13.8517 32.1664 14.4509 32.3967 15.1071 32.4111C15.4495 32.4111 15.8061 32.3823 16.1627 32.3679C16.8332 32.3391 17.5179 32.3823 18.1741 32.296C19.5864 32.1088 21.5836 32.2096 22.7819 31.2737H22.8104C23.0957 31.1585 23.3382 31.0577 23.5808 30.8705C23.809 30.6977 24.0372 30.5105 24.2227 30.2946C24.5365 29.949 24.6507 29.4018 24.3939 28.9843H24.3796Z" fill="#525252"/>
<path d="M41.8833 4.23319V2.79333C41.8405 1.98701 41.598 1.45427 41.1558 0.835129C40.6137 0.0432082 39.7007 -0.244763 38.8163 0.215991C38.2029 0.547158 37.6608 0.921521 37.3041 1.55506C36.9903 2.131 36.762 2.79333 36.5195 3.39807C36.1201 4.40597 36.063 5.57226 35.9204 6.63775C35.7777 7.76084 35.6779 8.81193 35.7492 9.93502C35.8348 11.2165 35.8491 12.642 36.5766 13.7506C37.4896 15.1185 39.4297 15.2049 40.3284 13.7506C40.7421 13.0883 40.9133 12.282 41.0131 11.5189C41.0417 11.3173 41.0559 11.1013 41.0845 10.8997C41.0845 10.8133 41.113 10.7269 41.113 10.6837C41.2985 9.50307 41.4268 8.33678 41.541 7.1417C41.5838 6.68095 41.6266 6.20579 41.6979 5.74504C41.6979 5.65865 41.7264 5.58666 41.7264 5.55786C41.7835 5.1259 41.8691 4.69394 41.8691 4.24759H41.8833V4.23319Z" fill="#525252"/>
<path d="M82.1829 124.591C85.1073 121.193 89.0731 117.91 93.4811 115.246C96.163 113.777 98.1459 112.093 98.4027 108.565C98.5881 105.901 97.3328 105.527 95.2215 105.527C93.1102 105.527 91.6266 106.737 91.2414 108.925C90.1145 113.417 84.1372 118.644 75.3497 118.644C64.3511 118.644 60.6991 112.093 61.227 104.433C62.2969 89.0119 76.277 78.1986 97.3613 78.1986C120.543 78.1986 129.986 89.0119 128.916 104.433C128.232 114.267 125.008 121.913 118.788 127.139C116.049 129.458 111.256 132.856 109.729 134.555C108.717 135.519 106.962 139.047 106.406 140.256C103.766 146.203 99.0589 149.961 90.9704 149.961C82.8819 149.961 78.2599 145.843 77.3612 140.256C76.8761 136.974 77.8319 129.933 82.1971 124.576H82.1829V124.591ZM90.6851 155.562C100.3 155.562 105.935 161.998 105.222 172.207C104.651 180.457 97.6609 186.649 88.531 186.649C79.4011 186.649 73.5095 180.457 74.0801 172.207C74.7934 161.998 81.5695 155.562 90.6851 155.562Z" fill="#363636"/>
</g>
<defs>
<clipPath id="clip0_767_991">
<rect width="201" height="257" fill="white"/>
</clipPath>
</defs>
</svg>
