<svg width="100" height="50" viewBox="0 0 100 50" fill="none" xmlns="http://www.w3.org/2000/svg">
<path fill-rule="evenodd" clip-rule="evenodd" d="M47.5 45C42.3883 48.6774 36.5734 50 29.3578 50C13.1439 50 0 38.8071 0 25C0 11.1929 13.1439 0 29.3578 0C37.4054 0 44.6968 2.75745 50 7.22339C55.3032 2.75745 62.5946 0 70.6422 0C86.8561 0 100 11.1929 100 25C100 38.8071 86.8561 50 70.6422 50C63.4266 50 57.6117 48.6774 52.5 45L53.5 50H46.5L47.5 45ZM47.4161 42.5253C44.5144 44.4769 41.0132 45.8334 37.2435 45.8334C27.218 45.8334 19.0908 38.3715 19.0908 29.1666C19.0908 19.9619 27.218 12.5 37.2435 12.5C42.2159 12.5 46.7214 14.3356 49.9999 17.309C53.2784 14.3356 57.7839 12.5 62.7563 12.5C72.7817 12.5 80.9091 19.9619 80.9091 29.1666C80.9091 38.3715 72.7817 45.8334 62.7563 45.8334C58.9868 45.8334 55.4855 44.4771 52.5837 42.5254C52.8481 42.0785 53 41.557 53 41C53 39.3431 51.6569 38 50 38C48.3431 38 47 39.3431 47 41C47 41.5569 47.1517 42.0784 47.4161 42.5253Z" fill="#00CCBB"/>
</svg>
