<svg width="100" height="50" viewBox="0 0 100 50" fill="none" xmlns="http://www.w3.org/2000/svg">
<path fill-rule="evenodd" clip-rule="evenodd" d="M29.3578 50C36.5733 50 42.3883 48.6773 47.5 45L46.5 50H50H53.5L52.5 45C57.6117 48.6773 63.4267 50 70.6422 50C86.8561 50 100 38.8071 100 25C100 11.1929 86.8561 0 70.6422 0C62.5946 0 55.3032 2.75744 50 7.22334C44.6968 2.75744 37.4054 0 29.3578 0C13.1439 0 0 11.1929 0 25C0 38.8071 13.1439 50 29.3578 50ZM37.2435 45.8333C42.2159 45.8333 46.7214 43.4734 49.9999 40.5C53.2784 43.4734 57.7839 45.8333 62.7563 45.8333C72.7818 45.8333 80.909 38.3714 80.909 29.1667C80.909 19.9619 72.7818 12.5 62.7563 12.5C57.7839 12.5 53.2784 14.3356 49.9999 17.309C46.7214 14.3356 42.2159 12.5 37.2435 12.5C27.2181 12.5 19.0908 19.9619 19.0908 29.1667C19.0908 38.3714 27.2181 45.8333 37.2435 45.8333Z" fill="#00CCBB"/>
</svg>
